<svg t="1722580241392" class="icon" viewBox="0 0 1079 1024" version="1.1" xmlns="http://www.w3.org/2000/svg" p-id="1741" width="16" height="16"><path d="M184.097874 760.732043c-33.230022 3.109761-57.841562 35.997709-54.709588 72.692894l6.503844 77.712937c3.131974 36.717397 31.981675 63.954464 64.136608 60.960208 19.520416-1.816989 39.049718-3.554013 58.583462-5.175531 32.172703-2.678837 56.788685-34.660512 54.687375-71.457874l-4.571349-77.881753c-2.10131-36.79292-31.039861-64.95403-64.292096-62.186343-20.120156 1.683714-40.231427 3.456278-60.338256 5.335462zM847.041249 754.894577c-33.576538-2.972043-62.90603 25.322343-65.176156 62.461779l-4.92675 78.610325c-2.270126 37.148321 22.45692 69.56092 54.936156 72.435228 19.72033 1.741466 39.427332 3.585111 59.138776 5.52649 32.457024 3.194169 61.702108-24.185059 65.011784-61.240087 2.301223-26.144208 4.589119-52.288416 6.881457-78.432624 3.314117-37.032816-21.404043-70.369458-54.953926-73.670248-20.306742-2.008017-40.609041-3.900529-60.911341-5.690863z" p-id="1742"></path><path d="M930.476148 501.582299a153.408972 153.408972 0 0 1 35.895531 18.840712c43.852078 31.017649 71.240191 68.565796 60.80472 175.5638-12.616746 128.384278-51.204443 148.677692-131.10754 141.902855a4206.018915 4206.018915 0 0 0-674.742698-1.679271c-79.92531 6.241735-138.739783-7.48564-151.898517-140.223584-11.288434-115.883037 16.979297-144.555037 60.80472-175.568243a153.253484 153.253484 0 0 1 35.846664-18.836269" fill="#FF7F88" p-id="1743"></path><path d="M893.661015 871.266291a4177.275835 4177.275835 0 0 0-670.073614-1.661501c-82.55528 6.228408-168.740095-5.859679-186.274707-169.939575-13.740703-131.622872 23.052217-170.534872 73.830178-206.510369a186.483505 186.483505 0 0 1 43.709918-22.998907c17.534612-6.432764 36.770707 2.581102 42.825856 19.991323 6.064035 17.419106-3.167514 36.557466-20.46223 42.888053a120.343323 120.343323 0 0 0-28.058932 14.718056c-33.309987 23.509796-57.010811 40.884477-47.592677 144.781605 4.633544 51.399913 16.752729 83.42157 36.748495 98.112972 16.246282 11.937041 40.32472 15.353336 80.75606 12.172495a4235.734907 4235.734907 0 0 1 679.407341 1.688156c57.934855 4.87344 86.100408 2.945388 96.562533-111.96918 8.747315-96.247115-15.055688-121.831566-47.583791-144.781606a120.2678 120.2678 0 0 0-28.103358-14.726941c-17.290273-6.326143-26.51738-25.464503-20.457788-42.88361 6.046265-17.419106 25.295688-26.419644 42.821415-20.000208a186.541258 186.541258 0 0 1 43.76767 23.012235c53.803315 38.143445 86.127063 88.61043 73.81685 206.505926-14.35377 136.078716-59.129892 180.765987-165.639219 171.601076z" fill="#FF7F88" p-id="1744"></path><path d="M118.397501 480.02721a12581.650325 12581.650325 0 0 0-69.836356 7.085814c-18.054386 1.883627-34.051887-11.586082-35.731158-30.249093-1.665944-18.534178 11.643835-35.255809 29.800399-37.33935l0.350959-0.039982a14658.31344 14658.31344 0 0 1 147.371592-14.549241c18.312052-1.803662 34.287341 12.141397 35.615653 30.835505 1.32387 18.698551-12.25246 35.109206-30.311288 36.824018-23.962933 2.270126-50.222646 4.762377-77.259801 7.432329zM959.570187 480.533657c-28.432104-2.834325-52.5061-5.495393-75.042985-8.418568-18.001076-2.332321-31.057631-19.204998-29.129579-37.841354 1.932495-18.631913 18.374247-32.003887 36.628546-29.57383 31.986117 4.171523 67.455167 7.747748 115.007861 12.261344 0.182143 0.01777 0.350959 0.031098 0.533102 0.057753 13.55856 1.523783 22.63462 2.581102 22.652391 2.581102 18.320937 2.110195 31.639601 19.062837 29.773744 37.694751-1.870299 18.640798-18.001076 31.937249-36.037692 29.858152-0.004443 0-8.907245-1.035106-22.248122-2.532235-15.140095-1.439375-29.102924-2.785458-42.137266-4.087115z" fill="#FF7F88" p-id="1745"></path><path d="M192.889614 538.584017c51.048954-3.696174 94.26131 38.050152 96.469241 92.151115 2.212373 54.140946-35.904416 100.049909-85.091957 103.621692-49.191983 3.522915-92.328816-36.535254-96.39816-90.529596-4.073787-53.97213 33.971922-101.564807 85.020876-105.243211zM897.312764 540.00118c50.311497 3.673961 87.766351 50.626915 83.705891 103.817163-4.056017 53.221345-46.597553 92.648677-95.074291 89.121319-48.485623-3.558456-86.020443-48.858794-83.794741-102.213415 2.212373-53.31908 44.847202-94.412356 95.163141-90.725067z" fill="#FFFFFF" opacity=".6" p-id="1746"></path><path d="M185.181848 494.527584c15.379991-109.961163 1.972477-236.80833 95.367497-310.611853 40.231427-29.631584 114.58138-32.781328 172.973813-33.709813a4478.136364 4478.136364 0 0 1 133.955193-0.47535c10.719792 0.146603 21.25744 0.315419 31.555193 0.559757 49.462976 0.701918 114.528069 3.211939 150.268113 32.368174 93.714881 73.310403 89.783254 205.350872 122.386881 312.175618a4239.25338 4239.25338 0 0 0-706.502247-0.333189" fill="#64C1D6" p-id="1747"></path><path d="M187.483072 528.388443a31.235332 31.235332 0 0 1-6.83259-0.177701c-16.34846-2.216816-28.254403-16.717189-28.201094-33.536555 0.004443-1.821432 0.146603-3.611766 0.422039-5.36656 2.932061-22.834534 4.67797-46.237709 6.566039-71.000295 7.076928-90.414091 14.851332-193.760347 99.654525-260.793475 0.293206-0.231011 0.590855-0.457579 0.888504-0.675263 48.827696-36.059905 128.957362-39.56505 193.036216-40.591271 47.441631-0.870733 94.887705-0.995124 142.329337-0.368729 8.24531 0.12439 16.384 0.275436 24.367201 0.462022 53.008104 0.728573 126.21633 3.474048 171.223462 40.044842 76.473475 59.987297 94.336833 149.46846 111.12066 235.422264 6.388338 32.981241 12.288 64.14105 20.910924 93.32394 3.176399 10.78643 1.012894 22.425822-5.721961 31.124269-6.730412 8.698447-17.139228 13.340876-27.859019 12.439045a4212.349501 4212.349501 0 0 0-700.469311-0.457579 21.790542 21.790542 0 0 1-1.434932 0.151046z m34.918177-70.853692a4267.147939 4267.147939 0 0 1 625.639567-0.182144c-4.056017-17.623462-7.658898-35.357987-11.239567-52.777093-16.010829-77.597432-31.706239-151.178829-88.641527-195.310785l-0.635279-0.493119c-26.872781-21.879393-88.352764-23.99403-128.93515-24.52269a2720.916824 2720.916824 0 0 0-31.506326-0.5642 4487.829935 4487.829935 0 0 0-133.053362 0.470907c-50.946777 0.79521-120.79646 3.607323-152.680399 26.619557-61.053501 48.201302-68.259262 128.202134-75.807098 212.436686-1.004009 11.315089-2.008017 22.803436-3.140859 34.322881z" fill="#FF7F88" p-id="1748"></path><path d="M747.511115 454.695983c-12.008121-0.59974-21.377388-11.159601-20.937579-23.651957 1.692599-43.638837-31.843957-80.813813-74.776434-81.951098-42.928035-1.159497-78.019471 34.176278-78.206056 77.855098-0.097735 12.505683-9.915696 22.550213-21.928261 22.505787-12.017007-0.044425-21.772772-10.155592-21.794985-22.661275-0.382056-68.627991 54.762898-124.816937 122.902213-122.96885 68.1482 1.799219 120.823115 60.871358 117.482343 129.397171-0.559757 12.492356-10.742004 22.070421-22.741241 21.475124z" fill="#448291" p-id="1749"></path></svg>