<?xml version="1.0" standalone="no"?><!DOCTYPE svg PUBLIC "-//W3C//DTD SVG 1.1//EN" "http://www.w3.org/Graphics/SVG/1.1/DTD/svg11.dtd"><svg height="1262" node-id="1" sillyvg="true" template-height="1262" template-width="1518" version="1.1" viewBox="0 0 1518 1262" width="1518" xmlns="http://www.w3.org/2000/svg" xmlns:xlink="http://www.w3.org/1999/xlink"><defs node-id="31"><clipPath id="clip-path" node-id="5"><path d="M 40.70 168.10 L 1559.30 168.10 L 1559.30 1431.90 L 40.70 1431.90 Z" fill="#000000" fill-rule="nonzero" id="SVGID" node-id="6" stroke="none" target-height="1263.8" target-width="1518.6001" target-x="40.7" target-y="168.1"></path></clipPath></defs><g node-id="147"><g clip-path="url(#clip-path)" group-id="1" node-id="39"><path d="M 1118.40 0.90 L 1122.00 15.30 L 1125.10 29.70 L 1127.70 44.20 L 1129.70 58.90 L 1131.30 73.50 L 1132.30 88.20 L 1132.70 103.00 L 1132.70 117.70 L 1132.10 132.50 L 1131.00 147.20 L 1129.40 161.90 L 1127.20 176.50 L 273.50 177.30 L 269.20 136.30 L 268.00 121.50 L 267.30 101.80 L 267.90 82.30 L 268.90 72.90 L 270.40 63.90 L 271.80 57.20 L 273.70 50.70 L 275.80 44.60 L 278.30 38.80 L 281.30 33.20 L 284.70 28.00 L 288.60 23.20 L 292.90 18.70 L 296.70 15.50 L 300.80 12.50 L 305.30 9.80 L 310.20 7.40 L 315.70 5.30 L 321.00 3.60 L 326.90 2.30 L 333.30 1.30 L 340.30 0.60 L 348.10 0.40 L 604.80 0.00 L 861.60 0.20 L 1118.40 0.90 Z M 410.30 113.70 L 412.90 112.80 L 417.30 110.00 L 419.10 108.20 L 421.20 105.40 L 422.80 102.30 L 423.90 98.80 L 424.40 95.10 L 424.30 91.40 L 423.50 87.40 L 422.10 83.70 L 420.30 80.40 L 418.00 77.60 L 415.20 75.10 L 412.20 73.30 L 409.00 72.00 L 403.90 71.10 L 401.20 71.30 L 398.50 71.80 L 393.60 74.00 L 389.70 77.40 L 387.60 80.20 L 386.00 83.30 L 384.90 86.80 L 384.40 90.40 L 384.50 94.20 L 385.30 98.10 L 386.70 101.80 L 388.50 105.10 L 390.80 107.90 L 393.60 110.40 L 396.60 112.20 L 399.80 113.60 L 402.40 114.20 L 407.60 114.30 L 410.30 113.70 Z M 499.40 92.70 L 498.60 87.10 L 496.50 82.10 L 494.40 79.10 L 491.90 76.60 L 488.90 74.50 L 483.90 72.40 L 478.30 71.70 L 475.30 71.90 L 470.00 73.30 L 467.60 74.60 L 464.70 76.60 L 462.20 79.20 L 460.10 82.10 L 458.00 87.10 L 457.20 92.80 L 458.00 98.40 L 460.10 103.40 L 462.20 106.40 L 464.70 108.90 L 467.60 111.00 L 472.60 113.10 L 478.30 113.80 L 483.90 113.10 L 488.90 110.90 L 491.80 108.80 L 494.30 106.30 L 496.40 103.40 L 498.50 98.40 L 499.30 92.80 Z M 551.80 114.90 L 556.90 114.00 L 561.30 111.60 L 563.90 109.40 L 566.10 106.70 L 568.00 103.50 L 569.30 100.00 L 570.10 96.30 L 570.30 92.20 L 570.10 89.30 L 568.80 83.90 L 566.20 78.80 L 562.70 74.70 L 558.40 71.90 L 553.60 70.40 L 551.00 70.30 L 548.40 70.50 L 543.70 72.10 L 541.50 73.50 L 538.90 75.70 L 536.70 78.40 L 534.80 81.60 L 533.50 85.10 L 532.70 88.80 L 532.50 92.90 L 532.60 95.80 L 534.00 101.30 L 536.60 106.30 L 540.10 110.50 L 542.10 112.00 L 546.70 114.20 L 551.80 114.90 Z" fill="#8dcafc" fill-rule="nonzero" group-id="1,20" node-id="41" stroke="none" target-height="177.3" target-width="865.39996" target-x="267.3" target-y="0"></path></g></g><g node-id="148"><path d="M 1118.40 0.90 L 1195.90 0.70 L 1202.90 1.00 L 1209.20 2.00 L 1214.90 3.50 L 1219.90 5.60 L 1224.50 8.20 L 1228.60 11.40 L 1232.30 15.10 L 1235.60 19.50 L 1238.50 24.60 L 1241.00 30.40 L 1243.00 37.10 L 1244.60 44.80 L 1247.80 67.20 L 1250.20 89.10 L 1251.80 110.40 L 1252.60 131.20 L 1252.60 151.40 L 1251.90 171.20 L 1250.50 190.50 L 1240.90 187.20 L 1231.30 184.30 L 1221.50 181.80 L 1211.70 179.70 L 1201.80 178.00 L 1191.80 176.70 L 1181.90 175.90 L 1171.80 175.50 L 1161.80 175.50 L 1151.70 175.90 L 1141.70 176.70 L 1131.60 178.00 L 1127.20 176.50 L 1129.40 161.90 L 1131.00 147.20 L 1132.10 132.50 L 1132.70 117.70 L 1132.70 103.00 L 1132.30 88.20 L 1131.30 73.50 L 1129.70 58.90 L 1127.70 44.20 L 1125.10 29.70 L 1122.00 15.30 L 1118.40 0.90 Z" fill="#63b9fc" fill-rule="nonzero" group-id="2" node-id="47" stroke="none" target-height="189.8" target-width="134.19995" target-x="1118.4" target-y="0.7"></path></g><g node-id="149"><path d="M 1127.20 176.50 L 1131.60 178.00 L 1131.80 200.20 L 1133.30 269.80 L 1133.60 316.70 L 1133.20 332.30 L 1131.60 362.90 L 1130.30 378.10 L 1128.50 392.90 L 1125.40 414.60 L 1124.80 422.20 L 1124.60 430.30 L 1124.90 442.40 L 1125.80 454.70 L 1130.70 501.20 L 1131.50 511.30 L 1131.60 519.50 L 1130.70 589.70 L 1130.30 659.90 L 1130.60 730.10 L 1131.50 800.20 L 1133.00 870.40 L 1135.10 940.60 L 1137.80 1010.80 L 295.00 1009.50 L 291.50 1009.30 L 285.70 1008.10 L 283.20 1006.90 L 281.10 1005.60 L 279.40 1004.00 L 273.40 996.90 L 272.10 203.80 L 273.60 177.20 Z M 495.80 454.20 L 579.70 377.70 L 584.80 372.60 L 588.80 367.50 L 592.00 362.50 L 594.30 357.60 L 595.90 352.60 L 596.70 347.50 L 596.80 342.30 L 596.20 337.00 L 594.80 331.40 L 592.60 325.60 L 590.60 321.50 L 588.40 318.00 L 586.10 315.10 L 583.70 312.60 L 581.10 310.60 L 577.50 308.50 L 573.70 307.00 L 569.70 306.00 L 565.30 305.60 L 561.00 305.70 L 556.40 306.20 L 551.50 307.20 L 546.20 308.80 L 539.50 311.40 L 532.40 314.60 L 524.90 318.70 L 510.00 328.00 L 502.20 333.50 L 490.80 342.10 L 479.30 351.50 L 468.00 361.30 L 457.10 371.30 L 436.60 391.00 L 418.90 408.90 L 391.00 438.10 L 387.60 442.90 L 385.20 447.40 L 383.70 451.90 L 382.90 456.20 L 382.90 460.50 L 383.60 464.90 L 385.10 469.30 L 387.50 473.90 L 390.90 478.70 L 395.30 483.80 L 417.10 506.30 L 446.00 534.90 L 469.00 556.10 L 481.10 566.60 L 493.40 576.70 L 513.80 592.00 L 529.40 602.10 L 537.20 606.50 L 544.50 610.00 L 551.20 612.70 L 556.50 614.30 L 561.40 615.40 L 565.80 615.90 L 569.90 616.00 L 573.20 615.60 L 576.20 614.80 L 579.00 613.60 L 581.50 612.10 L 583.90 610.10 L 585.90 607.80 L 587.80 605.10 L 589.40 601.80 L 590.90 597.80 L 592.10 593.00 L 593.10 587.40 L 593.60 580.60 L 593.60 572.50 L 593.20 562.90 L 592.70 560.10 L 590.80 554.80 L 587.70 550.10 L 585.70 548.10 L 496.50 466.60 L 494.30 463.70 L 493.30 460.20 L 493.80 456.90 L 495.80 454.20 Z M 826.60 352.80 L 828.00 344.80 L 827.80 337.00 L 826.10 329.50 L 823.00 322.50 L 818.60 316.30 L 813.10 310.90 L 806.60 306.70 L 799.00 303.70 L 792.40 302.00 L 788.50 301.50 L 780.80 301.70 L 773.20 303.40 L 766.00 306.50 L 759.60 311.00 L 754.20 316.60 L 750.00 323.20 L 747.20 330.50 L 681.60 563.70 L 680.70 567.70 L 680.10 575.60 L 680.40 579.50 L 682.20 587.00 L 685.20 594.00 L 689.60 600.20 L 695.10 605.60 L 701.60 609.80 L 709.20 612.80 L 716.00 614.50 L 723.80 615.10 L 731.50 614.10 L 738.80 611.70 L 745.40 608.00 L 751.30 603.00 L 756.10 597.00 L 759.70 590.00 L 761.10 586.00 Z M 1000.10 437.20 L 1002.90 439.50 L 1005.20 442.10 L 1007.20 445.10 L 1008.70 448.30 L 1009.70 451.70 L 1010.10 455.30 L 1010.10 459.00 L 1009.50 462.50 L 1008.40 465.80 L 1006.80 469.00 L 1004.70 471.90 L 1002.20 474.50 L 981.60 492.00 L 966.20 505.70 L 949.70 521.50 L 941.60 529.90 L 929.00 544.40 L 920.60 555.80 L 917.00 561.70 L 914.00 567.30 L 911.70 572.60 L 910.20 576.70 L 909.30 580.60 L 908.80 584.30 L 908.80 587.80 L 909.20 591.30 L 910.10 594.50 L 911.60 597.60 L 913.70 600.60 L 916.20 603.20 L 919.40 605.60 L 923.40 608.00 L 928.30 610.20 L 933.20 611.80 L 939.10 613.30 L 946.10 614.50 L 954.40 615.50 L 957.30 615.60 L 962.80 614.60 L 968.00 612.20 L 996.00 590.20 L 1021.30 569.40 L 1046.00 548.00 L 1095.20 503.50 L 1107.10 491.40 L 1114.80 481.90 L 1117.90 476.90 L 1120.40 471.90 L 1122.20 467.00 L 1123.00 463.10 L 1123.50 459.20 L 1123.40 455.20 L 1122.90 451.10 L 1122.00 447.10 L 1120.40 442.90 L 1118.30 438.50 L 1115.40 433.70 L 1112.30 429.40 L 1108.30 424.70 L 1103.50 419.70 L 1092.30 409.30 L 1058.90 376.80 L 1037.90 357.40 L 1026.80 347.80 L 1015.40 338.60 L 1004.00 330.20 L 996.20 324.90 L 988.70 320.30 L 981.30 316.20 L 970.00 311.20 L 959.60 308.00 L 954.30 307.00 L 949.30 306.60 L 944.50 306.80 L 940.00 307.50 L 936.50 308.50 L 933.10 309.80 L 929.80 311.70 L 926.60 314.00 L 923.50 316.80 L 920.90 319.70 L 918.30 323.20 L 915.80 327.40 L 913.40 332.20 L 911.20 337.80 L 910.50 340.60 L 910.20 343.30 L 910.40 346.10 L 911.00 348.80 L 912.00 351.30 L 913.50 353.80 L 921.00 364.00 L 929.30 374.30 L 938.50 384.70 L 948.70 395.10 L 959.90 405.50 L 972.20 416.00 L 985.50 426.60 L 1000.10 437.20 Z M 618.30 732.60 L 618.10 729.90 L 616.80 725.00 L 614.20 720.60 L 612.50 718.60 L 610.60 716.90 L 606.20 714.40 L 601.20 713.10 L 598.60 712.90 L 395.90 713.10 L 393.40 713.60 L 388.70 715.50 L 384.60 718.60 L 382.90 720.60 L 380.40 725.00 L 379.10 729.90 L 378.90 732.60 L 379.20 741.10 L 380.10 744.40 L 381.60 747.40 L 383.50 750.20 L 385.90 752.50 L 388.60 754.50 L 391.70 755.90 L 395.00 756.80 L 398.50 757.20 L 598.60 757.20 L 602.20 756.80 L 605.50 755.90 L 608.60 754.50 L 611.30 752.50 L 613.70 750.20 L 615.60 747.40 L 617.10 744.40 L 617.90 741.10 L 618.30 737.50 Z M 857.50 823.60 L 857.30 821.00 L 856.70 818.60 L 855.70 816.10 L 854.20 813.70 L 851.80 810.90 L 848.70 808.20 L 844.80 805.50 L 840.60 803.40 L 835.90 801.50 L 830.60 799.80 L 825.20 798.60 L 819.40 797.80 L 813.20 797.40 L 807.00 797.50 L 801.10 798.00 L 795.60 798.90 L 790.30 800.30 L 785.50 801.90 L 781.20 803.90 L 777.20 806.30 L 774.00 808.80 L 771.40 811.60 L 769.80 813.90 L 768.60 816.20 L 767.90 818.70 L 767.60 821.20 L 767.80 823.70 L 768.30 826.20 L 769.40 828.60 L 770.90 831.00 L 773.30 833.90 L 776.40 836.60 L 780.30 839.20 L 784.40 841.30 L 789.10 843.30 L 794.40 844.90 L 799.90 846.10 L 805.70 846.90 L 811.90 847.30 L 818.10 847.30 L 824.00 846.70 L 829.40 845.80 L 834.80 844.50 L 839.60 842.80 L 843.90 840.90 L 847.90 838.50 L 851.10 835.90 L 853.70 833.20 L 855.30 830.90 L 856.50 828.50 L 857.20 826.10 L 857.50 823.60 Z M 719.70 822.30 L 719.60 819.60 L 718.20 814.40 L 715.50 809.70 L 713.70 807.70 L 711.60 805.80 L 707.00 803.20 L 701.80 801.70 L 699.10 801.60 L 399.50 801.00 L 396.60 801.20 L 391.40 802.60 L 389.00 803.80 L 386.10 805.90 L 383.60 808.40 L 381.50 811.30 L 380.30 813.60 L 378.90 818.80 L 378.70 821.70 L 378.90 827.30 L 380.30 832.50 L 382.90 837.10 L 384.70 839.20 L 386.80 841.00 L 391.40 843.70 L 396.60 845.10 L 399.40 845.30 L 699.00 845.80 L 701.80 845.60 L 707.10 844.20 L 709.40 843.00 L 712.40 841.00 L 714.80 838.50 L 716.90 835.60 L 718.10 833.20 L 719.50 828.00 L 719.70 825.10 Z M 950.80 909.00 L 950.50 906.00 L 949.50 903.10 L 948.00 900.40 L 946.00 897.90 L 943.50 895.60 L 940.50 893.50 L 937.20 891.70 L 929.40 888.90 L 925.20 888.00 L 920.70 887.50 L 916.00 887.40 L 911.20 887.60 L 902.50 889.30 L 898.50 890.70 L 891.60 894.20 L 888.70 896.40 L 886.30 898.80 L 884.40 901.40 L 882.90 904.20 L 882.10 907.00 L 881.80 910.00 L 882.10 913.00 L 883.10 915.90 L 884.60 918.60 L 886.60 921.10 L 889.10 923.40 L 892.10 925.50 L 895.40 927.30 L 899.10 928.80 L 907.40 931.00 L 916.70 931.60 L 921.40 931.30 L 925.90 930.70 L 930.10 929.70 L 934.10 928.30 L 937.80 926.60 L 941.00 924.80 L 943.90 922.50 L 946.30 920.10 L 948.30 917.60 L 949.70 914.80 L 950.60 912.00 L 950.80 909.00 Z M 538.30 908.70 L 537.90 905.20 L 537.10 902.00 L 535.70 899.10 L 533.80 896.50 L 531.50 894.20 L 528.80 892.30 L 525.90 890.90 L 522.70 890.10 L 519.30 889.80 L 398.50 890.20 L 395.10 890.50 L 391.90 891.40 L 389.00 892.80 L 386.30 894.70 L 384.10 897.00 L 382.20 899.60 L 380.80 902.60 L 379.90 905.70 L 379.60 909.20 L 380.00 914.00 L 380.90 917.20 L 382.30 920.10 L 384.20 922.80 L 386.40 925.00 L 389.10 926.90 L 392.00 928.30 L 395.20 929.10 L 398.60 929.50 L 519.40 929.10 L 522.90 928.70 L 526.00 927.80 L 528.90 926.40 L 531.60 924.50 L 533.80 922.30 L 535.70 919.60 L 537.10 916.70 L 538.00 913.50 L 538.30 908.60 Z M 834.20 909.50 L 833.90 906.00 L 833.00 902.80 L 831.60 899.80 L 829.70 897.10 L 827.40 894.90 L 824.70 893.00 L 821.80 891.50 L 818.60 890.70 L 815.10 890.30 L 611.50 890.00 L 606.50 890.60 L 601.90 892.50 L 599.80 893.90 L 596.20 897.40 L 594.90 899.50 L 592.90 904.10 L 592.30 909.10 L 592.40 912.70 L 593.70 917.50 L 596.20 921.80 L 597.90 923.70 L 601.80 926.70 L 606.40 928.70 L 611.40 929.30 L 815.00 929.70 L 818.50 929.30 L 821.70 928.50 L 824.70 927.10 L 827.30 925.20 L 829.60 922.90 L 831.50 920.20 L 832.90 917.30 L 833.80 914.10 L 834.20 909.50 Z" fill="#3351c5" fill-rule="nonzero" group-id="3" node-id="52" stroke="none" target-height="834.3" target-width="865.7001" target-x="272.1" target-y="176.5"></path></g><g node-id="150"><path d="M 1131.60 178.00 L 1141.70 176.70 L 1151.70 175.90 L 1161.80 175.40 L 1171.80 175.50 L 1181.90 175.90 L 1191.80 176.70 L 1201.80 178.00 L 1211.70 179.70 L 1221.50 181.80 L 1231.30 184.30 L 1240.90 187.20 L 1250.50 190.50 L 1251.20 198.70 L 1251.90 296.80 L 1246.80 1013.20 L 1137.80 1010.80 L 1135.10 940.60 L 1133.00 870.50 L 1131.50 800.30 L 1130.60 730.20 L 1130.30 660.00 L 1130.70 589.80 L 1131.60 519.50 L 1131.50 511.30 L 1130.70 501.20 L 1125.80 454.70 L 1124.90 442.40 L 1124.60 430.30 L 1124.80 422.20 L 1125.40 414.60 L 1128.50 392.90 L 1130.30 378.10 L 1131.60 362.90 L 1133.20 332.30 L 1133.60 293.20 L 1131.80 200.20 L 1131.60 178.00 Z" fill="#2844ae" fill-rule="nonzero" group-id="4" node-id="57" stroke="none" target-height="837.80005" target-width="127.30005" target-x="1124.6" target-y="175.4"></path></g><g node-id="151"><path d="M 1251.20 198.70 L 1415.00 207.50 L 1405.20 205.20 L 1397.20 203.80 L 1390.60 203.20 L 1385.60 203.20 L 1381.40 203.60 L 1377.90 204.30 L 1374.90 205.30 L 1372.10 206.70 L 1369.70 208.40 L 1367.80 210.30 L 1366.30 212.50 L 1364.70 215.80 L 1363.70 219.50 L 1363.10 223.70 L 1363.20 232.70 L 1365.20 245.20 L 1372.50 276.80 L 1373.80 283.90 L 1374.40 288.70 L 1374.40 296.80 L 1251.90 296.80 Z M 272.10 203.80 L 272.10 296.80 L 157.70 300.50 L 156.10 300.70 L 153.20 301.90 L 151.50 303.40 L 150.10 305.40 L 149.20 307.70 L 148.90 310.30 L 148.20 1000.90 L 148.40 1003.60 L 149.90 1008.70 L 152.80 1013.10 L 154.70 1015.00 L 159.20 1017.80 L 161.80 1018.80 L 171.40 1021.10 L 180.90 1022.60 L 190.20 1023.40 L 199.50 1023.50 L 208.70 1022.90 L 217.80 1021.50 L 227.00 1019.40 L 236.10 1016.60 L 245.30 1012.90 L 254.60 1008.50 L 263.90 1003.20 L 273.40 997.00 L 279.40 1004.10 L 281.00 1005.60 L 283.10 1007.00 L 288.50 1008.90 L 294.90 1009.60 L 1137.80 1010.80 L 1246.70 1013.30 L 1374.40 1018.40 L 1375.10 1032.40 L 1375.00 1046.20 L 1374.10 1059.80 L 1372.50 1073.10 L 1370.10 1086.20 L 1367.00 1099.20 L 1363.10 1112.00 L 1358.40 1124.70 L 1353.00 1137.20 L 88.80 1136.90 L 85.40 1136.50 L 82.10 1135.60 L 78.90 1134.20 L 69.80 1129.10 L 65.20 1116.70 L 61.70 1105.90 L 59.20 1096.40 L 57.50 1088.20 L 56.50 1081.10 L 56.20 1074.90 L 55.80 668.10 L 56.00 261.00 L 56.30 252.60 L 57.30 245.20 L 58.80 238.60 L 60.90 232.80 L 63.40 227.60 L 66.40 223.10 L 69.80 219.00 L 73.70 215.50 L 78.20 212.50 L 83.30 210.00 L 89.00 207.90 L 95.40 206.30 L 102.70 205.30 L 110.90 204.90 Z" fill="#7a6d79" fill-rule="nonzero" group-id="5" node-id="62" stroke="none" target-height="938.49994" target-width="1359.2" target-x="55.8" target-y="198.7"></path></g><g node-id="152"><path d="M 1415.00 207.50 L 1423.30 209.20 L 1430.70 211.40 L 1437.10 214.00 L 1442.90 217.00 L 1447.90 220.30 L 1452.30 224.00 L 1456.10 228.10 L 1459.30 232.60 L 1462.00 237.50 L 1464.20 242.90 L 1465.90 248.90 L 1467.00 255.40 L 1467.60 262.60 L 1469.20 336.90 L 1470.30 419.80 L 1470.80 511.90 L 1470.70 613.80 L 1469.70 726.40 L 1467.90 850.20 L 1465.20 986.00 L 1461.60 1134.50 L 1410.60 1138.60 L 1353.00 1137.20 L 1358.50 1124.60 L 1363.10 1111.90 L 1367.00 1099.10 L 1370.20 1086.20 L 1372.50 1073.00 L 1374.20 1059.70 L 1375.00 1046.20 L 1375.10 1032.40 L 1374.40 1018.40 L 1374.60 292.90 L 1373.80 283.90 L 1372.50 276.80 L 1366.90 253.20 L 1363.90 237.70 L 1363.30 232.60 L 1363.10 223.70 L 1363.70 219.50 L 1364.80 215.80 L 1366.30 212.50 L 1367.80 210.30 L 1369.80 208.40 L 1372.10 206.70 L 1375.00 205.30 L 1377.90 204.30 L 1381.40 203.60 L 1385.60 203.20 L 1390.70 203.20 L 1397.20 203.80 L 1405.20 205.20 L 1415.00 207.50 Z" fill="#685e67" fill-rule="nonzero" group-id="6" node-id="67" stroke="none" target-height="935.39996" target-width="117.80005" target-x="1353" target-y="203.2"></path></g><g node-id="153"><g clip-path="url(#clip-path)" group-id="7" id="sillyvg_g_1" node-id="70"><path d="M 272.10 296.80 L 273.40 996.90 L 263.90 1003.10 L 254.60 1008.40 L 245.30 1012.90 L 236.10 1016.50 L 227.00 1019.40 L 217.80 1021.50 L 208.70 1022.80 L 199.50 1023.50 L 190.20 1023.40 L 180.90 1022.60 L 171.40 1021.00 L 161.80 1018.70 L 159.20 1017.80 L 154.70 1014.90 L 151.20 1011.00 L 149.00 1006.20 L 148.20 1000.80 L 148.90 310.20 L 149.20 307.70 L 150.10 305.40 L 151.50 303.40 L 153.20 301.90 L 154.60 301.10 L 157.70 300.50 Z" fill="#ddebf0" fill-rule="nonzero" group-id="7,21" node-id="74" stroke="none" target-height="726.7" target-width="125.2" target-x="148.2" target-y="296.8"></path><path d="M 1251.90 296.80 L 1374.40 296.80 L 1374.40 1018.40 L 1246.80 1013.20 Z M 69.90 1129.00 L 79.00 1134.20 L 82.10 1135.60 L 85.40 1136.50 L 88.90 1136.80 L 1353.00 1137.20 L 1410.60 1138.60 L 1415.00 1148.00 L 1418.50 1157.40 L 1421.30 1166.60 L 1423.20 1175.80 L 1424.40 1185.00 L 1424.80 1194.20 L 1424.40 1203.40 L 1423.30 1212.60 L 1421.40 1222.00 L 1418.70 1231.50 L 1415.10 1241.10 L 1410.70 1250.90 L 1405.30 1261.00 L 1242.00 1258.40 L 1078.50 1256.40 L 915.00 1255.10 L 751.30 1254.40 L 587.50 1254.30 L 423.60 1254.90 L 259.50 1256.10 L 86.00 1257.90 L 77.30 1257.40 L 69.20 1256.60 L 61.70 1255.40 L 54.70 1253.90 L 48.10 1252.00 L 41.40 1249.60 L 35.20 1246.80 L 29.60 1243.70 L 24.60 1240.30 L 20.00 1236.50 L 15.90 1232.40 L 12.10 1227.90 L 8.90 1223.00 L 6.20 1217.70 L 3.90 1211.90 L 2.10 1205.70 L 0.80 1198.90 L 0.20 1192.40 L 0.10 1185.40 L 0.50 1177.80 L 1.50 1169.60 L 3.10 1160.80 L 5.50 1151.20 L 6.50 1148.80 L 7.90 1146.80 L 9.80 1145.10 L 11.90 1143.90 L 14.20 1143.10 L 30.70 1142.00 L 37.50 1140.90 L 44.30 1139.30 L 50.90 1137.40 L 57.40 1135.00 L 63.70 1132.20 L 70.00 1129.10 Z" fill="#cbe5e6" fill-rule="nonzero" group-id="7,22" node-id="79" stroke="none" target-height="964.2" target-width="1424.7001" target-x="0.1" target-y="296.8"></path><path d="M 1461.50 1134.50 L 1502.50 1142.00 L 1505.00 1142.70 L 1507.30 1143.80 L 1509.40 1145.40 L 1511.10 1147.30 L 1512.40 1149.50 L 1513.20 1152.10 L 1515.50 1164.50 L 1516.90 1175.70 L 1517.50 1186.00 L 1517.30 1195.30 L 1516.50 1203.70 L 1515.10 1211.30 L 1513.10 1218.30 L 1510.60 1224.60 L 1507.60 1230.30 L 1504.10 1235.50 L 1500.00 1240.30 L 1495.40 1244.60 L 1490.20 1248.50 L 1484.40 1251.90 L 1477.80 1254.90 L 1470.50 1257.50 L 1462.40 1259.60 L 1453.20 1261.10 L 1443.10 1262.10 L 1431.80 1262.50 L 1419.20 1262.10 L 1405.20 1261.00 L 1410.60 1250.90 L 1415.10 1241.10 L 1418.60 1231.50 L 1421.30 1222.00 L 1423.30 1212.70 L 1424.40 1203.40 L 1424.70 1194.20 L 1424.30 1185.00 L 1423.20 1175.80 L 1421.20 1166.60 L 1418.50 1157.40 L 1415.00 1148.00 L 1410.60 1138.60 Z" fill="#a8d3d8" fill-rule="nonzero" group-id="7,23" node-id="84" stroke="none" target-height="128" target-width="112.30005" target-x="1405.2" target-y="1134.5"></path></g></g><g node-id="154"><path d="M 398.60 71.80 L 393.70 74.00 L 389.70 77.40 L 387.60 80.20 L 386.00 83.30 L 384.90 86.80 L 384.40 90.40 L 384.50 94.20 L 385.30 98.20 L 386.70 101.90 L 388.50 105.20 L 390.80 108.00 L 393.60 110.50 L 396.60 112.30 L 399.80 113.60 L 402.40 114.20 L 407.60 114.30 L 410.30 113.80 L 412.90 112.90 L 417.30 110.10 L 419.10 108.30 L 421.20 105.40 L 422.80 102.30 L 423.90 98.80 L 424.40 95.20 L 424.30 91.40 L 423.50 87.50 L 422.10 83.70 L 420.30 80.50 L 418.00 77.60 L 415.20 75.20 L 412.20 73.30 L 409.00 72.00 L 403.90 71.20 L 398.50 71.80 Z" fill="#f1eff2" fill-rule="nonzero" group-id="8" node-id="90" stroke="none" target-height="43.100006" target-width="40" target-x="384.4" target-y="71.2"></path></g><g node-id="155"><path d="M 457.20 92.80 L 457.40 95.90 L 458.10 98.90 L 459.20 101.70 L 460.60 104.40 L 462.50 106.80 L 464.60 108.90 L 467.10 110.70 L 469.80 112.10 L 472.80 113.10 L 475.90 113.70 L 478.90 113.80 L 482.00 113.50 L 484.90 112.80 L 487.70 111.60 L 490.30 110.10 L 492.60 108.20 L 494.70 105.90 L 496.50 103.30 L 497.90 100.40 L 498.80 97.50 L 499.20 94.50 L 499.30 91.50 L 498.90 88.50 L 498.10 85.60 L 496.80 82.80 L 495.20 80.30 L 493.10 77.90 L 490.70 75.80 L 488.10 74.20 L 485.40 72.90 L 482.50 72.10 L 479.50 71.70 L 476.50 71.80 L 473.50 72.20 L 470.60 73.10 L 467.70 74.50 L 464.60 76.70 L 462.10 79.20 L 460.00 82.20 L 458.40 85.50 L 457.50 89.00 L 457.20 92.80 Z" fill="#f1eff2" fill-rule="nonzero" group-id="9" node-id="95" stroke="none" target-height="42.100006" target-width="42.099976" target-x="457.2" target-y="71.7"></path></g><g node-id="156"><path d="M 550.90 70.30 L 548.40 70.60 L 543.60 72.20 L 541.40 73.50 L 538.90 75.80 L 536.70 78.50 L 534.80 81.70 L 533.50 85.10 L 532.70 88.90 L 532.40 93.00 L 532.80 97.10 L 533.80 100.80 L 535.20 104.20 L 537.20 107.30 L 539.50 109.90 L 542.20 112.00 L 544.40 113.30 L 549.20 114.70 L 551.80 114.90 L 554.40 114.60 L 559.10 113.00 L 561.30 111.70 L 563.90 109.40 L 566.10 106.80 L 567.90 103.50 L 569.30 100.10 L 570.00 96.30 L 570.30 92.20 L 569.90 88.20 L 568.90 84.40 L 567.50 81.00 L 565.50 77.90 L 563.20 75.30 L 560.50 73.20 L 558.30 71.90 L 553.50 70.50 L 550.90 70.30 Z" fill="#f1eff2" fill-rule="nonzero" group-id="10" node-id="100" stroke="none" target-height="44.6" target-width="37.899963" target-x="532.4" target-y="70.3"></path></g><g node-id="157"><path d="M 496.50 466.60 L 585.70 548.10 L 587.70 550.10 L 590.80 554.80 L 592.70 560.10 L 593.20 562.90 L 593.60 572.50 L 593.60 580.60 L 593.00 587.40 L 592.10 593.00 L 590.90 597.70 L 589.40 601.70 L 587.80 605.10 L 585.90 607.80 L 583.90 610.00 L 581.50 612.00 L 578.90 613.60 L 576.20 614.80 L 573.10 615.60 L 569.80 615.90 L 565.80 615.90 L 561.30 615.40 L 556.50 614.30 L 551.20 612.60 L 544.50 609.90 L 537.20 606.40 L 529.30 602.00 L 513.80 592.00 L 505.50 586.00 L 493.40 576.70 L 481.10 566.50 L 469.00 556.10 L 446.00 534.80 L 417.10 506.30 L 395.30 483.80 L 390.90 478.70 L 387.50 473.90 L 385.10 469.30 L 383.60 464.90 L 382.90 460.50 L 382.90 456.20 L 383.70 451.80 L 385.20 447.40 L 387.60 442.90 L 391.00 438.10 L 418.90 408.90 L 436.60 390.90 L 457.10 371.30 L 479.30 351.50 L 490.80 342.10 L 502.30 333.50 L 510.00 328.00 L 524.90 318.70 L 532.40 314.60 L 539.50 311.40 L 546.30 308.80 L 551.50 307.30 L 556.40 306.20 L 561.00 305.70 L 565.30 305.60 L 569.70 306.00 L 573.70 307.00 L 577.50 308.50 L 581.10 310.60 L 583.70 312.70 L 586.10 315.10 L 588.40 318.10 L 590.60 321.50 L 592.60 325.60 L 594.80 331.50 L 596.20 337.00 L 596.80 342.40 L 596.70 347.50 L 595.90 352.60 L 594.30 357.60 L 592.00 362.60 L 588.80 367.60 L 584.80 372.60 L 579.70 377.70 L 495.80 454.20 L 493.80 456.90 L 493.30 460.20 L 494.30 463.70 L 496.50 466.60 Z" fill="#f1eff2" fill-rule="nonzero" group-id="11" node-id="105" stroke="none" target-height="310.30002" target-width="213.9" target-x="382.9" target-y="305.6"></path></g><g node-id="158"><path d="M 796.30 302.90 L 805.60 305.90 L 811.10 308.40 L 815.70 311.20 L 819.50 314.30 L 822.60 317.70 L 825.10 321.30 L 826.90 325.40 L 828.20 329.80 L 828.90 334.60 L 828.90 340.00 L 828.10 346.10 L 826.60 352.80 L 761.10 586.00 L 758.90 592.60 L 756.40 598.10 L 753.50 602.70 L 750.40 606.50 L 747.10 609.60 L 743.40 612.10 L 739.40 613.90 L 735.00 615.20 L 730.10 615.90 L 724.70 615.90 L 718.70 615.10 L 709.20 612.80 L 702.60 610.60 L 697.10 608.10 L 692.50 605.30 L 688.70 602.20 L 685.60 598.80 L 683.10 595.20 L 681.30 591.10 L 680.00 586.70 L 679.40 581.90 L 679.30 576.50 L 680.10 570.40 L 681.60 563.70 L 747.20 330.50 L 749.40 323.90 L 751.90 318.40 L 754.70 313.80 L 757.80 310.00 L 761.20 306.90 L 764.80 304.40 L 768.90 302.60 L 773.30 301.30 L 778.10 300.60 L 783.50 300.60 L 789.50 301.40 L 796.30 302.90 Z" fill="#f1eff2" fill-rule="nonzero" group-id="12" node-id="110" stroke="none" target-height="315.30002" target-width="149.60004" target-x="679.3" target-y="300.6"></path></g><g node-id="159"><path d="M 1000.10 437.20 L 985.50 426.50 L 972.10 416.00 L 959.90 405.50 L 948.70 395.00 L 938.50 384.70 L 929.30 374.30 L 921.00 364.00 L 913.50 353.80 L 912.00 351.30 L 911.00 348.80 L 910.40 346.10 L 910.20 343.30 L 910.50 340.60 L 911.20 337.80 L 913.40 332.20 L 915.80 327.40 L 918.30 323.20 L 920.90 319.70 L 923.50 316.70 L 926.60 313.90 L 929.80 311.70 L 933.10 309.80 L 936.50 308.40 L 940.00 307.50 L 944.60 306.80 L 949.30 306.60 L 954.30 307.00 L 959.60 308.00 L 970.00 311.20 L 975.50 313.40 L 988.70 320.30 L 996.30 324.90 L 1004.00 330.20 L 1015.40 338.60 L 1026.80 347.80 L 1048.60 367.10 L 1092.40 409.30 L 1103.60 419.70 L 1108.40 424.70 L 1112.30 429.40 L 1115.40 433.70 L 1118.30 438.50 L 1120.50 442.90 L 1122.00 447.10 L 1123.00 451.10 L 1123.50 455.20 L 1123.50 459.20 L 1123.10 463.10 L 1122.20 467.00 L 1120.40 471.90 L 1118.00 476.90 L 1114.80 481.90 L 1107.20 491.40 L 1095.20 503.50 L 1046.10 548.00 L 1021.30 569.40 L 996.10 590.20 L 970.40 610.50 L 965.50 613.50 L 960.10 615.20 L 957.30 615.60 L 954.40 615.50 L 946.20 614.50 L 939.20 613.30 L 933.30 611.80 L 928.40 610.20 L 923.40 608.00 L 919.40 605.60 L 916.20 603.20 L 913.80 600.60 L 911.70 597.70 L 910.20 594.60 L 909.20 591.30 L 908.80 587.80 L 908.90 584.30 L 909.30 580.60 L 910.30 576.70 L 911.70 572.60 L 914.00 567.30 L 917.00 561.70 L 920.70 555.90 L 929.10 544.40 L 941.60 530.00 L 949.70 521.50 L 966.20 505.70 L 981.70 492.00 L 1002.30 474.50 L 1004.80 471.90 L 1006.80 469.00 L 1008.40 465.80 L 1009.50 462.50 L 1010.10 459.00 L 1010.20 455.30 L 1009.70 451.70 L 1008.70 448.30 L 1007.20 445.10 L 1005.30 442.10 L 1002.90 439.50 L 1000.10 437.20 Z" fill="#f1eff2" fill-rule="nonzero" group-id="13" node-id="115" stroke="none" target-height="308.99997" target-width="214.70001" target-x="908.8" target-y="306.6"></path></g><g node-id="160"><path d="M 398.50 712.90 L 598.60 712.90 L 603.60 713.20 L 607.60 714.20 L 610.80 715.80 L 613.40 717.80 L 615.40 720.40 L 616.90 723.60 L 617.90 727.60 L 618.30 732.60 L 617.90 742.50 L 616.90 746.50 L 615.40 749.70 L 613.40 752.30 L 610.80 754.30 L 607.60 755.80 L 603.60 756.80 L 598.60 757.20 L 398.50 757.20 L 393.60 756.80 L 389.60 755.80 L 386.40 754.30 L 383.80 752.20 L 381.80 749.70 L 380.20 746.40 L 379.20 742.40 L 378.90 732.50 L 379.20 727.60 L 380.20 723.60 L 381.80 720.30 L 383.80 717.70 L 386.40 715.70 L 389.60 714.20 L 393.60 713.20 L 398.50 712.80 Z" fill="#fddd44" fill-rule="nonzero" group-id="14" node-id="120" stroke="none" target-height="44.400024" target-width="239.4" target-x="378.9" target-y="712.8"></path></g><g node-id="161"><path d="M 767.60 821.20 L 767.80 823.70 L 768.40 826.20 L 769.40 828.60 L 770.90 831.00 L 773.30 833.80 L 776.40 836.60 L 780.30 839.20 L 784.40 841.30 L 789.10 843.20 L 794.40 844.90 L 799.90 846.10 L 805.70 846.90 L 811.90 847.30 L 818.10 847.20 L 824.00 846.70 L 829.50 845.80 L 834.80 844.40 L 839.60 842.80 L 843.90 840.80 L 847.90 838.40 L 851.10 835.90 L 853.70 833.10 L 855.30 830.80 L 856.50 828.50 L 857.20 826.00 L 857.50 823.50 L 857.30 821.00 L 856.70 818.50 L 855.70 816.10 L 854.20 813.70 L 851.80 810.90 L 848.70 808.10 L 844.80 805.50 L 840.70 803.40 L 836.00 801.40 L 830.60 799.80 L 825.20 798.60 L 819.40 797.80 L 813.20 797.40 L 807.00 797.50 L 801.10 798.00 L 795.60 798.90 L 790.30 800.30 L 785.50 801.90 L 781.20 803.90 L 777.20 806.30 L 774.00 808.80 L 771.40 811.50 L 769.80 813.90 L 768.60 816.20 L 767.90 818.60 L 767.60 821.20 Z" fill="#fc9743" fill-rule="nonzero" group-id="15" node-id="125" stroke="none" target-height="49.899963" target-width="89.900024" target-x="767.6" target-y="797.4"></path></g><g node-id="162"><path d="M 399.50 801.00 L 699.10 801.50 L 703.80 801.80 L 707.60 802.60 L 710.80 803.90 L 713.50 805.70 L 715.60 807.80 L 717.40 810.50 L 718.60 813.70 L 719.50 817.60 L 719.80 825.10 L 719.50 829.80 L 718.60 833.70 L 717.30 836.90 L 715.60 839.50 L 713.40 841.60 L 710.80 843.40 L 707.60 844.70 L 703.70 845.50 L 699.00 845.80 L 399.40 845.30 L 394.70 845.00 L 390.80 844.10 L 387.60 842.80 L 385.00 841.10 L 382.90 838.90 L 381.10 836.30 L 379.80 833.10 L 379.00 829.20 L 378.70 821.70 L 379.00 817.00 L 379.90 813.10 L 381.20 809.90 L 382.90 807.30 L 385.00 805.10 L 387.70 803.40 L 390.90 802.10 L 394.80 801.30 L 399.50 801.00 Z" fill="#fc9743" fill-rule="nonzero" group-id="16" node-id="130" stroke="none" target-height="44.799988" target-width="341.09998" target-x="378.7" target-y="801"></path></g><g node-id="163"><path d="M 881.80 910.00 L 882.20 913.00 L 883.10 915.80 L 884.60 918.60 L 886.60 921.00 L 889.10 923.30 L 892.20 925.50 L 895.40 927.30 L 899.10 928.80 L 903.20 930.00 L 911.90 931.40 L 916.70 931.60 L 925.90 930.60 L 930.10 929.60 L 934.10 928.20 L 937.80 926.60 L 941.00 924.70 L 943.90 922.50 L 946.40 920.10 L 948.30 917.60 L 949.70 914.80 L 950.60 911.90 L 950.80 908.90 L 950.50 905.90 L 949.50 903.10 L 948.00 900.30 L 946.00 897.90 L 943.50 895.60 L 940.50 893.40 L 937.20 891.60 L 933.50 890.10 L 929.40 888.80 L 920.70 887.40 L 916.00 887.30 L 911.20 887.60 L 902.60 889.30 L 898.50 890.60 L 894.90 892.30 L 891.70 894.20 L 888.70 896.40 L 886.30 898.80 L 884.40 901.30 L 882.90 904.10 L 882.10 907.00 L 881.80 910.00 Z" fill="#28d1b3" fill-rule="nonzero" group-id="17" node-id="135" stroke="none" target-height="44.299988" target-width="69" target-x="881.8" target-y="887.3"></path></g><g node-id="164"><path d="M 398.50 890.20 L 519.20 889.70 L 524.00 890.10 L 527.90 891.00 L 531.00 892.50 L 533.50 894.40 L 535.40 896.90 L 536.90 900.00 L 537.90 903.80 L 538.20 908.60 L 537.90 914.80 L 537.00 918.70 L 535.50 921.80 L 533.50 924.30 L 531.10 926.30 L 528.00 927.70 L 524.10 928.70 L 519.40 929.00 L 398.60 929.50 L 393.80 929.10 L 390.00 928.20 L 386.90 926.70 L 384.40 924.80 L 382.40 922.30 L 380.90 919.20 L 379.90 915.30 L 379.60 910.60 L 379.90 904.40 L 380.90 900.50 L 382.30 897.40 L 384.30 894.90 L 386.80 893.00 L 389.90 891.50 L 393.70 890.50 L 398.50 890.20 Z" fill="#28d1b3" fill-rule="nonzero" group-id="18" node-id="140" stroke="none" target-height="39.799988" target-width="158.6" target-x="379.6" target-y="889.7"></path></g><path d="M 611.40 890.00 L 815.10 890.30 L 819.90 890.70 L 823.80 891.60 L 826.90 893.10 L 829.40 895.10 L 831.40 897.60 L 832.90 900.80 L 833.80 904.70 L 834.20 910.50 L 833.80 915.40 L 832.80 919.20 L 831.40 922.40 L 829.40 924.90 L 826.80 926.90 L 823.70 928.30 L 819.80 929.30 L 815.00 929.60 L 611.40 929.30 L 606.60 928.90 L 602.70 928.00 L 599.60 926.50 L 597.00 924.50 L 595.10 922.00 L 593.60 918.80 L 592.60 915.00 L 592.30 909.10 L 592.60 904.30 L 593.60 900.40 L 595.10 897.30 L 597.10 894.80 L 599.60 892.80 L 602.70 891.30 L 606.60 890.30 L 611.40 890.00 Z" fill="#28d1b3" fill-rule="nonzero" group-id="19" node-id="145" stroke="none" target-height="39.599976" target-width="241.90002" target-x="592.3" target-y="890"></path></svg>